<?xml version="1.0" standalone="no"?>
<!DOCTYPE svg PUBLIC "-//W3C//DTD SVG 20010904//EN"
 "http://www.w3.org/TR/2001/REC-SVG-20010904/DTD/svg10.dtd">
<svg version="1.0" xmlns="http://www.w3.org/2000/svg"
 width="1148.000000pt" height="1148.000000pt" viewBox="0 0 1148.000000 1148.000000"
 preserveAspectRatio="xMidYMid meet">
<metadata>
Created by potrace 1.11, written by Peter Selinger 2001-2013
</metadata>
<g transform="translate(0.000000,1148.000000) scale(0.100000,-0.100000)"
fill="#000000" stroke="none">
<path d="M5350 11466 c-67 -20 -113 -40 -128 -53 -7 -7 -18 -13 -23 -13 -5 0
-15 -4 -22 -10 -7 -5 -41 -31 -77 -57 -88 -65 -142 -121 -229 -238 -41 -55
-82 -107 -90 -116 -9 -8 -64 -33 -123 -55 -163 -59 -228 -115 -206 -174 12
-31 57 -80 75 -80 7 0 13 -4 13 -10 0 -5 7 -10 15 -10 21 0 37 -71 40 -175 1
-89 1 -91 -48 -190 -28 -55 -54 -102 -58 -105 -16 -11 -59 -116 -59 -146 0
-17 9 -43 20 -56 19 -25 94 -63 116 -60 6 1 18 -39 27 -97 9 -54 27 -121 39
-147 12 -27 22 -51 22 -54 1 -3 29 -51 64 -107 58 -93 69 -105 126 -137 86
-48 109 -99 80 -181 -7 -22 -14 -48 -14 -59 0 -17 -58 -122 -86 -156 -6 -8
-29 -49 -50 -90 -20 -41 -41 -78 -46 -81 -5 -3 -10 -16 -11 -27 -1 -12 -5 -22
-9 -22 -4 0 -8 -8 -8 -18 0 -10 -4 -22 -9 -28 -8 -8 -69 -153 -76 -179 -1 -5
-5 -17 -8 -25 -10 -26 -68 -194 -71 -210 -2 -8 -13 -42 -24 -75 -22 -66 -61
-203 -68 -238 -2 -12 -7 -35 -10 -52 -27 -122 -22 -287 10 -399 9 -29 18 -70
22 -92 3 -21 11 -42 17 -46 18 -11 65 23 110 77 48 58 59 66 109 81 52 16 62
2 44 -60 -8 -25 -15 -49 -15 -51 -1 -3 -1 -6 -2 -7 0 -2 -2 -10 -4 -19 -12
-65 -62 -216 -90 -274 -31 -64 -48 -89 -97 -147 -10 -12 -44 -25 -89 -35 -83
-17 -168 -56 -219 -102 -19 -17 -45 -31 -57 -32 -28 -2 -31 -2 -68 -18 -55
-24 -89 -31 -170 -37 -205 -14 -239 -19 -282 -44 -17 -10 -53 -20 -80 -21 -60
-3 -108 -25 -122 -55 -6 -13 -15 -24 -21 -24 -14 0 -97 -56 -141 -95 -114
-102 -142 -241 -83 -407 14 -40 27 -81 29 -90 13 -59 46 -90 125 -117 66 -22
74 -34 76 -112 2 -39 5 -73 8 -76 2 -3 1 -15 -4 -27 -4 -13 -5 -28 0 -35 4 -7
4 -27 1 -45 -4 -17 -4 -47 -1 -66 3 -19 3 -46 -1 -60 -3 -14 -3 -34 1 -44 3
-11 3 -39 0 -63 -4 -24 -3 -43 2 -43 5 0 6 -4 3 -10 -7 -12 -8 -146 -1 -177 3
-13 2 -23 -2 -23 -9 0 -7 -358 2 -367 3 -3 1 -12 -5 -20 -9 -10 -8 -13 0 -13
7 0 10 -4 6 -9 -5 -9 -9 -175 -5 -196 1 -5 1 -14 0 -20 -6 -29 -4 -275 3 -275
5 0 5 -5 2 -10 -4 -6 -8 -366 -10 -801 -3 -690 -5 -793 -18 -807 -36 -40 -51
-106 -48 -217 1 -44 1 -168 1 -275 -1 -184 -2 -199 -26 -257 -31 -79 -42 -136
-39 -215 2 -71 -3 -84 -76 -233 -58 -119 -58 -121 -50 -320 2 -38 2 -146 1
-240 -3 -215 12 -278 81 -345 48 -45 135 -55 259 -27 36 8 92 18 125 22 33 3
61 8 63 10 2 2 17 -1 33 -5 17 -5 31 -5 35 1 3 5 9 7 14 4 5 -3 44 -8 86 -10
42 -2 88 -6 103 -9 27 -6 79 -13 147 -21 22 -3 50 -7 64 -10 28 -6 79 -12 160
-21 30 -3 66 -7 80 -9 14 -3 48 -7 75 -10 28 -3 73 -8 100 -11 54 -6 86 -9
210 -19 44 -3 91 -8 105 -10 60 -9 360 -18 650 -19 215 -1 326 -5 350 -13 19
-7 46 -14 60 -16 14 -2 32 -6 40 -9 8 -3 44 -16 80 -28 36 -13 112 -48 170
-78 254 -135 396 -194 495 -209 22 -3 49 -9 60 -13 12 -4 81 -7 155 -5 168 3
258 27 444 120 183 92 254 112 402 113 125 0 182 10 242 43 45 25 112 88 112
106 0 7 3 13 8 13 17 0 66 144 77 230 3 25 8 56 10 70 2 14 7 50 10 80 3 30 9
75 11 100 3 25 7 124 9 220 6 279 -36 438 -148 561 -48 53 -141 115 -200 135
-29 9 -56 19 -62 23 -5 3 -15 6 -22 7 -6 1 -33 7 -60 12 -27 6 -82 14 -123 18
-41 3 -76 8 -78 9 -5 5 -98 -39 -117 -55 -12 -10 -24 -10 -62 3 -43 13 -91 26
-118 32 -18 4 -120 25 -140 29 -113 22 -235 71 -299 119 -52 40 -73 42 -90 9
-8 -16 -16 -50 -17 -76 -2 -26 -7 -50 -13 -53 -20 -13 -56 -9 -56 6 0 32 -25
93 -49 120 -33 36 -87 53 -179 57 -41 1 -75 4 -77 6 -2 2 -5 43 -8 93 -4 69
-1 97 10 119 43 84 49 133 43 394 -1 68 3 94 24 147 28 69 39 152 38 285 -2
135 -10 126 112 123 68 -1 123 3 152 12 49 14 94 49 94 72 0 7 4 13 9 13 9 0
24 63 26 112 1 35 2 36 60 43 97 11 160 62 183 147 11 39 9 858 -2 943 -12 91
-13 100 -36 210 -17 81 -19 90 -53 215 -62 222 -113 425 -122 480 -4 25 -9 56
-12 69 -6 37 -44 142 -63 175 -10 17 -18 48 -19 69 -1 50 -18 112 -44 162 -21
39 -21 51 -23 560 l-1 520 23 51 c40 91 77 209 90 289 2 11 7 38 10 60 12 73
8 258 -10 410 -2 17 -7 60 -10 96 -4 37 -11 81 -16 98 -5 17 -7 31 -5 31 2 0
-2 18 -10 40 -8 22 -12 40 -10 40 5 0 -40 131 -53 157 -6 10 -13 37 -16 59
-10 66 -41 134 -82 183 -22 25 -53 67 -69 93 -17 26 -54 84 -82 129 -29 44
-53 85 -53 90 0 5 -4 9 -10 9 -5 0 -10 5 -10 11 0 11 -116 186 -157 238 -16
19 -30 39 -32 44 -2 6 -11 19 -20 28 -16 18 -45 72 -75 139 -51 117 -49 295 6
428 6 15 12 30 12 33 1 3 30 39 66 79 100 112 104 127 51 186 -18 20 -39 47
-46 60 -16 32 -5 86 21 99 10 5 77 46 147 90 127 79 160 113 153 159 -5 38
-92 103 -149 113 -28 5 -69 28 -103 60 -30 27 -74 124 -74 161 0 18 -17 52
-64 132 -15 25 -29 53 -33 63 -3 9 -9 17 -14 17 -5 0 -9 5 -9 11 0 6 -19 44
-43 83 -44 71 -47 78 -47 95 0 24 -58 73 -122 106 -39 19 -77 40 -85 46 -7 6
-13 8 -13 4 0 -5 -8 -1 -17 8 -30 26 -175 94 -233 109 -72 19 -164 21 -220 4z
m-1243 -5307 c7 -7 49 -16 95 -20 46 -5 103 -12 128 -15 25 -4 79 -6 120 -4
219 5 379 4 387 -3 9 -9 10 -1431 1 -1508 -3 -25 -9 -52 -13 -59 -5 -8 -10
-34 -11 -59 -2 -25 -5 -56 -8 -68 -2 -11 -8 -43 -12 -70 -3 -26 -8 -56 -10
-66 -20 -114 -20 -464 0 -558 3 -13 8 -40 11 -59 2 -19 6 -44 8 -55 7 -35 20
-100 22 -105 1 -3 5 -21 9 -40 17 -71 63 -141 110 -165 13 -7 44 -16 68 -20
38 -7 76 -7 243 -4 68 1 75 0 82 -18 19 -57 78 -173 104 -206 29 -36 48 -97
30 -97 -12 0 -41 -47 -47 -73 -2 -12 -6 -33 -9 -47 -20 -95 -27 -282 -13 -345
10 -47 36 -115 59 -151 16 -26 27 -34 50 -34 16 0 30 -6 30 -12 1 -7 2 -91 3
-186 l2 -174 -41 -18 c-22 -10 -69 -28 -105 -40 -36 -13 -69 -26 -75 -30 -5
-3 -30 -13 -55 -20 -25 -7 -51 -18 -57 -23 -7 -5 -13 -6 -13 -2 0 4 -7 2 -15
-5 -8 -7 -15 -9 -15 -4 0 5 -4 5 -8 -1 -10 -15 -111 -48 -157 -52 -129 -11
-215 -67 -291 -191 -1 -2 -14 4 -28 13 -20 14 -36 15 -78 9 -54 -8 -66 -10
-70 -13 -2 -1 -28 -3 -58 -6 -30 -2 -86 -6 -125 -9 -38 -4 -97 -8 -130 -11
-77 -6 -156 -15 -175 -20 -8 -2 -34 -7 -58 -10 -62 -9 -183 -50 -248 -85 -31
-16 -60 -30 -63 -30 -4 0 -13 16 -20 35 -7 19 -16 35 -21 35 -4 0 -17 20 -29
45 -12 25 -37 63 -57 85 -20 21 -33 44 -30 49 11 17 14 97 6 111 -5 8 -3 25 5
40 7 14 15 40 18 58 6 38 -16 135 -39 169 -14 22 -19 42 -8 30 3 -3 19 -1 36
5 45 16 93 121 84 184 -6 44 -48 132 -69 146 -14 8 -5 19 19 22 17 3 47 86 59
161 2 17 11 62 19 100 23 105 33 177 53 370 9 96 9 464 -1 555 -15 147 -21
166 -64 207 l-23 23 5 647 5 648 31 105 c17 58 32 119 35 135 15 100 18 139
20 215 2 96 -14 170 -51 236 l-25 45 36 42 c66 77 142 132 310 226 97 54 105
57 122 40z"/>
</g>
</svg>
